<svg width="19" height="19" viewBox="0 0 19 19" fill="none" xmlns="http://www.w3.org/2000/svg">
<g clip-path="url(#clip0_233_2270)">
<path d="M17.0352 0.0996094H1.28516C0.986788 0.0996094 0.70064 0.218136 0.489661 0.429114C0.278683 0.640093 0.160156 0.926241 0.160156 1.22461L0.160156 16.9746C0.160156 17.5934 0.666406 18.0996 1.28516 18.0996H17.0352C17.3335 18.0996 17.6197 17.9811 17.8307 17.7701C18.0416 17.5591 18.1602 17.273 18.1602 16.9746V1.22461C18.1602 0.926241 18.0416 0.640093 17.8307 0.429114C17.6197 0.218136 17.3335 0.0996094 17.0352 0.0996094Z" fill="#222222"/>
<path d="M8.99692 2.34961H9.70005C11.05 2.34961 11.3032 2.36086 11.9444 2.38898C12.6644 2.42273 13.1538 2.53523 13.5813 2.70398C14.0257 2.87273 14.4025 3.10898 14.7794 3.48023C15.1169 3.81773 15.3869 4.22836 15.5557 4.67836L15.5669 4.71211C15.7244 5.12836 15.8369 5.60086 15.8707 6.28711L15.8763 6.51211C15.9044 7.08586 15.91 7.42898 15.91 8.98711V9.50461C15.91 10.9671 15.8988 11.2202 15.8707 11.884C15.8592 12.4435 15.7527 12.997 15.5557 13.5209C15.3869 13.9709 15.1225 14.3815 14.7794 14.719C14.4413 15.0619 14.0324 15.3268 13.5813 15.4952L13.5475 15.5065C13.1313 15.664 12.6532 15.7765 11.9725 15.8046L11.7475 15.8159C11.1738 15.844 10.8307 15.8496 9.27255 15.8496H8.75505C7.96171 15.8594 7.16825 15.8463 6.37567 15.8102C5.81614 15.7987 5.26264 15.6922 4.7388 15.4952C4.2888 15.3265 3.87817 15.0621 3.54067 14.719C3.19779 14.3809 2.93287 13.972 2.76442 13.5209L2.75317 13.4871C2.56736 12.982 2.46477 12.4501 2.44942 11.9121L2.4438 11.704C2.41171 10.8907 2.40046 10.0766 2.41005 9.26273V8.70023C2.41005 7.22648 2.4213 6.97898 2.44942 6.31523C2.48317 5.60648 2.59567 5.11711 2.7588 4.69523L2.76442 4.67836C2.93317 4.22836 3.19755 3.81773 3.54067 3.48023C3.87878 3.13735 4.28768 2.87243 4.7388 2.70398L4.77255 2.69273C5.27765 2.50692 5.80957 2.40433 6.34755 2.38898L6.55567 2.38336C7.12942 2.34961 7.46692 2.34961 8.99692 2.34961ZM9.5088 3.56461H8.8113C7.51755 3.56461 7.17442 3.57023 6.66817 3.59273L6.43192 3.60398C5.7738 3.63211 5.41942 3.74461 5.17755 3.83461C4.86255 3.95836 4.63755 4.10461 4.4013 4.34086C4.1763 4.57148 4.02442 4.79086 3.9063 5.10023L3.88942 5.13398C3.74563 5.53097 3.66957 5.94929 3.66442 6.37148L3.65317 6.62461C3.63067 7.13086 3.62505 7.48523 3.62505 8.84086V9.44836C3.62505 10.9334 3.6363 11.164 3.66442 11.8277V11.8671C3.69817 12.5027 3.80505 12.8459 3.90067 13.0821C4.0188 13.3971 4.16505 13.6221 4.40692 13.8584C4.63192 14.0834 4.85692 14.2352 5.16067 14.3534L5.19442 14.3702C5.59141 14.514 6.00973 14.5901 6.43192 14.5952L6.68505 14.6065C7.1913 14.629 7.54567 14.6346 8.9013 14.6346H9.5088C10.9938 14.6346 11.2244 14.6234 11.8882 14.5952H11.9275C12.343 14.586 12.7539 14.5061 13.1425 14.359C13.435 14.2521 13.6994 14.0777 13.9188 13.8527C14.1438 13.6277 14.2957 13.4027 14.4138 13.099L14.4307 13.0652C14.5745 12.6683 14.6505 12.2499 14.6557 11.8277L14.6669 11.5746C14.6894 11.0684 14.695 10.714 14.695 9.35836V8.74523C14.695 7.26586 14.6838 7.03523 14.6557 6.37148V6.33211C14.6464 5.91664 14.5665 5.50577 14.4194 5.11711C14.3125 4.82461 14.1382 4.56023 13.9132 4.34086C13.7011 4.12276 13.4438 3.95379 13.1594 3.84586L13.1257 3.82898C12.736 3.68694 12.3254 3.6109 11.9107 3.60398L11.6519 3.59273C11.1457 3.57023 10.8082 3.56461 9.51442 3.56461H9.5088ZM9.16005 5.63461C10.079 5.63461 10.9604 5.99967 11.6102 6.64948C12.26 7.2993 12.625 8.18063 12.625 9.09961C12.625 10.0186 12.26 10.8999 11.6102 11.5497C10.9604 12.1995 10.079 12.5646 9.16005 12.5646C8.24107 12.5646 7.35974 12.1995 6.70992 11.5497C6.06011 10.8999 5.69505 10.0186 5.69505 9.09961C5.69505 8.18063 6.06011 7.2993 6.70992 6.64948C7.35974 5.99967 8.24107 5.63461 9.16005 5.63461ZM9.16005 6.84961C8.56331 6.84961 7.99102 7.08666 7.56906 7.50862C7.1471 7.93058 6.91005 8.50287 6.91005 9.09961C6.91005 9.69635 7.1471 10.2686 7.56906 10.6906C7.99102 11.1126 8.56331 11.3496 9.16005 11.3496C9.75679 11.3496 10.3291 11.1126 10.751 10.6906C11.173 10.2686 11.41 9.69635 11.41 9.09961C11.41 8.50287 11.173 7.93058 10.751 7.50862C10.3291 7.08666 9.75679 6.84961 9.16005 6.84961ZM12.76 4.68398C12.9749 4.68398 13.1809 4.76932 13.3328 4.92123C13.4847 5.07313 13.57 5.27916 13.57 5.49398C13.57 5.70881 13.4847 5.91484 13.3328 6.06674C13.1809 6.21865 12.9749 6.30398 12.76 6.30398C12.5452 6.30398 12.3392 6.21865 12.1873 6.06674C12.0354 5.91484 11.95 5.70881 11.95 5.49398C11.95 5.27916 12.0354 5.07313 12.1873 4.92123C12.3392 4.76932 12.5452 4.68398 12.76 4.68398Z" fill="white"/>
</g>
<defs>
<clipPath id="clip0_233_2270">
<rect width="18" height="18" fill="white" transform="translate(0.160156 0.0996094)"/>
</clipPath>
</defs>
</svg>
