<svg width="14" height="13" viewBox="0 0 14 13" fill="none" xmlns="http://www.w3.org/2000/svg">
<path d="M9.10498 8.875L12.48 12.25M6.10498 10C6.64668 10 7.18308 9.8933 7.68355 9.686C8.18402 9.4787 8.63875 9.17486 9.0218 8.79182C9.40484 8.40877 9.70868 7.95404 9.91598 7.45357C10.1233 6.9531 10.23 6.4167 10.23 5.875C10.23 5.3333 10.1233 4.7969 9.91598 4.29643C9.70868 3.79596 9.40484 3.34123 9.0218 2.95818C8.63875 2.57514 8.18402 2.2713 7.68355 2.064C7.18308 1.8567 6.64668 1.75 6.10498 1.75C5.01096 1.75 3.96175 2.1846 3.18816 2.95818C2.41458 3.73177 1.97998 4.78098 1.97998 5.875C1.97998 6.96902 2.41458 8.01823 3.18816 8.79182C3.96175 9.5654 5.01096 10 6.10498 10Z" stroke="white" stroke-width="2"/>
</svg>
