<svg width="33" height="32" viewBox="0 0 33 32" fill="none" xmlns="http://www.w3.org/2000/svg">
<g clip-path="url(#clip0_237_4758)">
<path d="M16.0202 0.700195C7.58022 0.700195 0.720215 7.5602 0.720215 16.0002C0.720215 24.4402 7.58022 31.3002 16.0202 31.3002C24.4602 31.3002 31.3202 24.4402 31.3202 16.0002C31.3202 7.5602 24.4602 0.700195 16.0202 0.700195ZM16.0202 28.7002C12.0002 28.7002 8.42022 26.8202 6.09022 23.8902C7.71181 21.7688 9.97343 20.226 12.5402 19.4902C11.615 18.9037 10.853 18.0929 10.325 17.1331C9.79705 16.1733 9.52021 15.0956 9.52022 14.0002C9.52022 12.2763 10.205 10.623 11.424 9.404C12.643 8.18501 14.2963 7.5002 16.0202 7.5002C17.7441 7.5002 19.3974 8.18501 20.6164 9.404C21.8354 10.623 22.5202 12.2763 22.5202 14.0002C22.521 15.0971 22.2445 16.1765 21.7166 17.138C21.1886 18.0996 20.4262 18.9121 19.5002 19.5002C22.0673 20.2354 24.3291 21.7783 25.9502 23.9002C24.7639 25.397 23.2545 26.6062 21.5349 27.4374C19.8154 28.2686 17.9301 28.7003 16.0202 28.7002Z" fill="#717171"/>
</g>
<defs>
<clipPath id="clip0_237_4758">
<rect width="32" height="32" fill="white" transform="translate(0.0200195)"/>
</clipPath>
</defs>
</svg>
